<svg width="48" height="48" viewBox="0 0 48 48" fill="none" xmlns="http://www.w3.org/2000/svg">
<path d="M9.49564 11.1536C8.45579 9.54508 10.3452 7.65566 11.9538 8.69551L19.9744 13.8805C22.9114 15.7791 26.6888 15.7791 29.6258 13.8805L37.6465 8.69551C39.2551 7.65566 41.1445 9.54507 40.1046 11.1536L34.9197 19.1743C33.0211 22.1113 33.0211 25.8887 34.9197 28.8257L40.1046 36.8464C41.1445 38.4549 39.2551 40.3443 37.6465 39.3045L29.6258 34.1195C26.6888 32.2209 22.9114 32.2209 19.9744 34.1195L11.9538 39.3045C10.3452 40.3443 8.45579 38.4549 9.49564 36.8464L14.6806 28.8257C16.5792 25.8887 16.5792 22.1113 14.6806 19.1743L9.49564 11.1536Z" fill="currentColor"/>
</svg>
