<svg width="48" height="48" viewBox="0 0 48 48" fill="none" xmlns="http://www.w3.org/2000/svg">
<path fill-rule="evenodd" clip-rule="evenodd" d="M13.3999 5C8.98162 5 5.3999 8.58172 5.3999 13V35C5.3999 39.4183 8.98162 43 13.3999 43H35.3999C39.8182 43 43.3999 39.4183 43.3999 35V13C43.3999 8.58172 39.8182 5 35.3999 5H13.3999ZM13.7929 20.4645C11.8402 22.4171 11.8402 25.5829 13.7929 27.5355L24.0459 37.7886C24.2412 37.9838 24.5578 37.9838 24.753 37.7886L35.0061 27.5355C36.9587 25.5829 36.9587 22.4171 35.0061 20.4645L24.753 10.2114C24.5578 10.0162 24.2412 10.0162 24.0459 10.2114L13.7929 20.4645Z" fill="currentColor"/>
</svg>
