<svg width="48" height="48" viewBox="0 0 48 48" fill="none" xmlns="http://www.w3.org/2000/svg">
<path d="M23.0002 15.0001C23.0002 19.4184 19.4184 23.0002 15.0001 23.0002C10.5818 23.0002 7 19.4184 7 15.0001C7 10.5818 10.5818 7 15.0001 7C19.4184 7 23.0002 10.5818 23.0002 15.0001Z" fill="currentColor"/>
<path d="M23.0002 32.997C23.0002 37.4153 19.4184 40.9971 15.0001 40.9971C10.5818 40.9971 7 37.4153 7 32.997C7 28.5786 10.5818 24.9969 15.0001 24.9969C19.4184 24.9969 23.0002 28.5786 23.0002 32.997Z" fill="currentColor"/>
<path d="M41.0002 15.003C41.0002 19.4213 37.4184 23.0031 33.0001 23.0031C28.5818 23.0031 25 19.4213 25 15.003C25 10.5847 28.5818 7.00293 33.0001 7.00293C37.4184 7.00293 41.0002 10.5847 41.0002 15.003Z" fill="currentColor"/>
<path d="M41.0002 33.0001C41.0002 37.4184 37.4184 41.0002 33.0001 41.0002C28.5818 41.0002 25 37.4184 25 33.0001C25 28.5818 28.5818 25 33.0001 25C37.4184 25 41.0002 28.5818 41.0002 33.0001Z" fill="currentColor"/>
</svg>
