<svg width="48" height="48" viewBox="0 0 48 48" fill="none" xmlns="http://www.w3.org/2000/svg">
<path fill-rule="evenodd" clip-rule="evenodd" d="M23.2155 24C14.0391 24 6.6001 16.561 6.6001 7.38462C6.6001 6.61991 7.22001 6 7.98471 6C17.1611 6 24.6001 13.439 24.6001 22.6154C24.6001 13.439 32.0391 6 41.2155 6C41.9802 6 42.6001 6.61991 42.6001 7.38462C42.6001 16.561 35.1611 24 25.9847 24C35.1611 24 42.6001 31.439 42.6001 40.6154C42.6001 41.3801 41.9802 42 41.2155 42C32.0391 42 24.6001 34.561 24.6001 25.3846C24.6001 34.561 17.1611 42 7.98471 42C7.22001 42 6.6001 41.3801 6.6001 40.6154C6.6001 31.439 14.0391 24 23.2155 24Z" fill="currentColor"/>
</svg>
