<svg width="48" height="48" viewBox="0 0 48 48" fill="none" xmlns="http://www.w3.org/2000/svg">
<path fill-rule="evenodd" clip-rule="evenodd" d="M16.7002 41C19.7487 41 22.4619 39.5641 24.2002 37.3317C25.9385 39.5641 28.6517 41 31.7002 41C36.9469 41 41.2002 36.7467 41.2002 31.5C41.2002 28.4515 39.7643 25.7383 37.5319 24C39.7643 22.2617 41.2002 19.5485 41.2002 16.5C41.2002 11.2533 36.9469 7 31.7002 7C28.6517 7 25.9385 8.43593 24.2002 10.6683C22.4619 8.43593 19.7487 7 16.7002 7C11.4535 7 7.2002 11.2533 7.2002 16.5C7.2002 19.5485 8.63613 22.2617 10.8685 24C8.63613 25.7383 7.2002 28.4515 7.2002 31.5C7.2002 36.7467 11.4535 41 16.7002 41ZM18.7002 18C18.4241 18 18.2002 18.2239 18.2002 18.5V29.5C18.2002 29.7761 18.4241 30 18.7002 30H29.7002C29.9763 30 30.2002 29.7761 30.2002 29.5V18.5C30.2002 18.2239 29.9763 18 29.7002 18H18.7002Z" fill="currentColor"/>
</svg>
