<svg width="24" height="24" viewBox="0 0 24 24" fill="none" xmlns="http://www.w3.org/2000/svg">
<path d="M11.5001 7.50004C11.5001 9.70921 9.70921 11.5001 7.50004 11.5001C5.29088 11.5001 3.5 9.70921 3.5 7.50004C3.5 5.29088 5.29088 3.5 7.50004 3.5C9.70921 3.5 11.5001 5.29088 11.5001 7.50004Z" fill="currentColor"/>
<path d="M11.5001 16.4985C11.5001 18.7077 9.70921 20.4985 7.50004 20.4985C5.29088 20.4985 3.5 18.7077 3.5 16.4985C3.5 14.2893 5.29088 12.4985 7.50004 12.4985C9.70921 12.4985 11.5001 14.2893 11.5001 16.4985Z" fill="currentColor"/>
<path d="M20.5001 7.50151C20.5001 9.71067 18.7092 11.5016 16.5 11.5016C14.2909 11.5016 12.5 9.71067 12.5 7.50151C12.5 5.29235 14.2909 3.50146 16.5 3.50146C18.7092 3.50146 20.5001 5.29235 20.5001 7.50151Z" fill="currentColor"/>
<path d="M20.5001 16.5C20.5001 18.7092 18.7092 20.5001 16.5 20.5001C14.2909 20.5001 12.5 18.7092 12.5 16.5C12.5 14.2909 14.2909 12.5 16.5 12.5C18.7092 12.5 20.5001 14.2909 20.5001 16.5Z" fill="currentColor"/>
</svg>
