<svg width="28" height="28" viewBox="0 0 28 28" fill="none" xmlns="http://www.w3.org/2000/svg">
<path d="M9.76688 5.25H7.09211C6.07474 5.25 5.25 6.07474 5.25 7.09211C5.25 15.7397 12.2603 22.75 20.9079 22.75C21.9253 22.75 22.75 21.9253 22.75 20.9079V18.2331C22.75 17.438 22.2659 16.723 21.5277 16.4277L18.9653 15.4028C18.3021 15.1375 17.547 15.2572 16.9983 15.7144L16.3363 16.266C15.5638 16.9098 14.4277 16.8583 13.7166 16.1472L11.8528 14.2834C11.1417 13.5723 11.0902 12.4362 11.734 11.6637L12.2856 11.0017C12.7428 10.453 12.8625 9.69787 12.5972 9.03474L11.5723 6.4723C11.277 5.73407 10.562 5.25 9.76688 5.25Z" fill="currentColor"/>
</svg>
