<svg width="22" height="22" viewBox="0 0 22 22" fill="none" xmlns="http://www.w3.org/2000/svg">
<g clip-path="url(#clip0_98_1459)">
<path d="M21.2262 12.7351C21.8826 7.2104 20.9109 3.72248 19.1582 2.1449L19.1591 2.14398C16.3303 -0.550099 6.7768 -0.94885 3.39247 2.26498C1.87264 3.83707 1.33731 6.14432 1.27864 9.00065C1.21997 11.8579 1.15031 17.2103 6.13789 18.6623H6.14247L6.13789 20.8797C6.13789 20.8797 6.10397 21.7781 6.6778 21.9586C7.33414 22.1713 7.63114 21.7542 9.67255 19.3159C13.0862 19.612 15.7079 18.9336 16.0058 18.8347C16.6951 18.6036 20.5956 18.0876 21.2262 12.7351ZM10.009 17.7557C10.009 17.7557 7.84839 20.4498 7.17647 21.1492C6.95647 21.3766 6.71539 21.3555 6.71905 20.9045C6.71905 20.6084 6.73555 17.2231 6.73555 17.2231C2.50697 16.0113 2.75631 11.4536 2.80214 9.0694C2.84797 6.68423 3.28431 4.73082 4.57131 3.4154C7.54039 0.631484 15.916 1.2539 18.05 3.25957C20.6588 5.57232 19.7302 12.1063 19.7357 12.3291C19.1995 16.7969 16.0388 17.0801 15.4576 17.2736C15.2092 17.3561 12.9038 17.9492 10.009 17.7557Z" fill="currentColor"/>
<path d="M11.2022 3.93848C10.8493 3.93848 10.8493 4.48848 11.2022 4.49306C13.9403 4.51414 16.1953 6.42264 16.22 9.92339C16.22 10.2928 16.7609 10.2882 16.7563 9.91881H16.7554C16.726 6.14673 14.2639 3.95956 11.2022 3.93848Z" fill="currentColor"/>
<path d="M14.8052 9.34362C14.7969 9.70845 15.3369 9.72587 15.3414 9.35645C15.3864 7.27653 14.1039 5.56328 11.694 5.3827C11.3411 5.35703 11.3044 5.91162 11.6564 5.93728C13.7464 6.09587 14.8474 7.5222 14.8052 9.34362Z" fill="currentColor"/>
<path d="M14.2283 11.7099C13.7755 11.4478 13.3144 11.6109 13.1238 11.8685L12.725 12.3846C12.5224 12.6468 12.1438 12.6119 12.1438 12.6119C9.38101 11.8813 8.64218 8.99017 8.64218 8.99017C8.64218 8.99017 8.60826 8.59875 8.86126 8.38884L9.35993 7.97634C9.60926 7.77834 9.76693 7.30167 9.51301 6.83325C8.83468 5.60767 8.3791 5.18509 8.14718 4.86059C7.90335 4.55534 7.53668 4.48659 7.15535 4.69284H7.1471C6.35418 5.15667 5.4861 6.02475 5.76385 6.9185C6.23777 7.86084 7.1086 10.8648 9.88426 13.1344C11.1887 14.2078 13.253 15.3078 14.1293 15.5618L14.1376 15.5746C15.0011 15.8624 15.8408 14.9604 16.289 14.1437V14.1373C16.4879 13.7422 16.4219 13.3682 16.1313 13.1234C15.6162 12.6211 14.8388 12.0665 14.2283 11.7099Z" fill="currentColor"/>
<path d="M12.0703 7.42919C12.9512 7.48053 13.3784 7.94069 13.4242 8.88577C13.4407 9.25519 13.9769 9.22952 13.9604 8.86011C13.9018 7.62628 13.2583 6.93878 12.0996 6.87461C11.7467 6.85353 11.7137 7.40811 12.0703 7.42919Z" fill="currentColor"/>
</g>
<defs>
<clipPath id="clip0_98_1459">
<rect width="22" height="22" fill="currentColor"/>
</clipPath>
</defs>
</svg>
