<svg viewBox="0 0 85 32" fill="none" xmlns="http://www.w3.org/2000/svg"><path d="M83.8182 25.0325V29.6416H70.045C66.6565 29.6457 63.3862 28.3919 60.8629 26.1214C60.4814 25.7794 60.1196 25.4158 59.7792 25.0325C57.7386 22.7443 56.5149 19.8392 56.3012 16.7754C56.0875 13.7117 56.8959 10.6637 58.599 8.11227C60.302 5.56087 62.8027 3.65131 65.7065 2.68483C68.6104 1.71834 71.7521 1.74995 74.6361 2.77465C74.8274 2.84379 75.0186 2.91676 75.2099 2.9955C76.6837 3.59357 78.0429 4.44381 79.2271 5.5084C78.8458 5.85035 78.484 6.21356 78.1434 6.59632C77.4561 7.36782 76.8571 8.21426 76.3577 9.11978C75.8355 8.62422 75.2577 8.19115 74.6361 7.82924C73.917 7.41207 73.1448 7.09516 72.3405 6.88727C71.0793 6.56308 69.7637 6.51187 68.4813 6.73704C67.1988 6.96221 65.9786 7.45861 64.9018 8.1933C63.825 8.92799 62.9162 9.88418 62.2356 10.9984C61.5549 12.1126 61.1181 13.3595 60.9541 14.6561C60.7901 15.9527 60.9027 17.2696 61.2843 18.5192C61.6659 19.7689 62.3078 20.9228 63.1676 21.9043C64.0273 22.8859 65.0851 23.6727 66.2708 24.2125C67.4565 24.7523 68.7431 25.0328 70.045 25.0354L83.8182 25.0325Z" fill="#0D0D1C"/><path d="M74.6352 15.8144C74.6354 16.9371 74.2273 18.0213 73.4877 18.8634C72.748 19.7055 71.7276 20.2476 70.618 20.3879C70.4277 20.4121 70.236 20.424 70.0442 20.4235C68.8265 20.4235 67.6588 19.9379 66.7978 19.0735C65.9368 18.2091 65.4531 17.0368 65.4531 15.8144C65.4531 14.592 65.9368 13.4197 66.7978 12.5553C67.6588 11.6909 68.8265 11.2054 70.0442 11.2054C70.2361 11.2047 70.4278 11.2168 70.618 11.2418C71.7275 11.3822 72.7477 11.9241 73.4873 12.766C74.227 13.6079 74.6351 14.6918 74.6352 15.8144Z" fill="#0D0D1C"/><path d="M24.1349 1.98853V6.59758H14.9528V29.6428H10.3618V6.59758H1.17969V1.98853H24.1349Z" fill="#0D0D1C"/><path d="M51.6838 1.98853V6.59758H42.5017V29.6428H37.9106V6.59758H28.7285V1.98853H51.6838Z" fill="#0D0D1C"/></svg>
